<svg width="146" height="40" viewBox="0 0 146 40" fill="none" xmlns="http://www.w3.org/2000/svg">
<path d="M54.3367 20.7099C54.933 20.7099 55.482 20.7525 55.9837 20.8377C56.4948 20.9134 56.9066 20.9986 57.219 21.0933L56.6368 25.0263C56.1162 24.9033 55.5814 24.8133 55.0324 24.7565C54.4928 24.6903 53.977 24.6572 53.4847 24.6572C52.9736 24.6572 52.5098 24.7045 52.0933 24.7991C51.6862 24.8843 51.3218 25.0169 51 25.1967C50.6119 25.4049 50.2806 25.67 50.0061 25.9918C49.7316 26.3137 49.5044 26.6923 49.3245 27.1277V36.3568H45.3773V20.9939H49.0548L49.2109 23.1663L49.2393 23.5071C49.8641 22.6362 50.6119 21.9547 51.4827 21.4625C52.3536 20.9608 53.3049 20.7099 54.3367 20.7099ZM74.6123 28.8316C74.6123 29.5699 74.5603 30.2704 74.4561 30.933C74.352 31.5861 74.2006 32.1919 74.0018 32.7504C73.7841 33.3657 73.4954 33.9241 73.1357 34.4258C72.7854 34.9275 72.3689 35.344 71.8862 35.6753C71.4508 35.9877 70.9585 36.2243 70.4095 36.3852C69.87 36.5556 69.2736 36.6408 68.6205 36.6408C68.0242 36.6408 67.4799 36.5651 66.9877 36.4136C66.5049 36.2717 66.0695 36.0587 65.6814 35.7747C65.4731 35.6327 65.2791 35.4765 65.0992 35.3061C64.9194 35.1263 64.749 34.9322 64.5881 34.724L64.4035 36.3568H60.8538V14.5477H64.8011V22.3854C64.9904 22.1677 65.1939 21.9689 65.4116 21.789C65.6293 21.5997 65.8612 21.4388 66.1073 21.3063C66.4576 21.1075 66.8362 20.9608 67.2432 20.8661C67.6597 20.762 68.1093 20.7099 68.5921 20.7099C69.2547 20.7099 69.8605 20.7951 70.4095 20.9655C70.968 21.1359 71.465 21.382 71.9004 21.7038C72.2506 21.9499 72.5677 22.2481 72.8517 22.5983C73.1357 22.9391 73.3865 23.313 73.6042 23.72C73.945 24.3732 74.1958 25.1068 74.3568 25.9208C74.5271 26.7349 74.6123 27.6057 74.6123 28.5334V28.8316ZM70.6651 28.5334C70.6651 28.1264 70.6462 27.7335 70.6083 27.3549C70.5704 26.9763 70.5089 26.6213 70.4237 26.29C70.3196 25.9019 70.1823 25.5564 70.012 25.2535C69.851 24.9411 69.6049 24.6572 69.2736 24.4016C69.0559 24.2407 68.8098 24.1223 68.5353 24.0466C68.2608 23.9614 67.9484 23.9188 67.5982 23.9188C67.1249 23.9188 66.7084 23.9851 66.3487 24.1176C65.989 24.2501 65.6814 24.4442 65.4258 24.6997C65.3027 24.8228 65.1892 24.9648 65.085 25.1257C64.9809 25.2772 64.8863 25.4428 64.8011 25.6227V31.7423C64.9146 31.9789 65.0424 32.1966 65.1844 32.3954C65.3359 32.5847 65.511 32.7504 65.7098 32.8924C65.9464 33.0722 66.2209 33.2095 66.5333 33.3041C66.8551 33.3988 67.2196 33.4461 67.6266 33.4461C67.9768 33.4461 68.2939 33.4035 68.5779 33.3183C68.8619 33.2331 69.108 33.1148 69.3162 32.9634C69.6097 32.7551 69.8463 32.4853 70.0262 32.154C70.2155 31.8133 70.3575 31.4299 70.4521 31.004C70.5278 30.6916 70.5799 30.3508 70.6083 29.9816C70.6462 29.6125 70.6651 29.2291 70.6651 28.8316V28.5334ZM79.2837 20.9939H87.6467V33.1479H91.8069V36.3568H79.2837V33.1479H83.6569V24.217H79.2837V20.9939ZM83.3729 17.0609C83.3729 16.758 83.425 16.4787 83.5291 16.2232C83.6427 15.9581 83.7989 15.7309 83.9976 15.5416C84.1964 15.3618 84.4331 15.2198 84.7076 15.1157C84.9915 15.0115 85.3039 14.9595 85.6447 14.9595C86.3451 14.9595 86.8989 15.1583 87.3059 15.5558C87.7224 15.9439 87.9307 16.4456 87.9307 17.0609C87.9307 17.6762 87.7224 18.1826 87.3059 18.5801C86.8989 18.9682 86.3451 19.1623 85.6447 19.1623C85.3039 19.1623 84.9915 19.1102 84.7076 19.0061C84.4331 18.902 84.1964 18.7552 83.9976 18.5659C83.7989 18.3861 83.6427 18.1684 83.5291 17.9128C83.425 17.6478 83.3729 17.3638 83.3729 17.0609ZM102.939 17.2313V20.9939H108.675V23.9046H102.939V30.507C102.939 31.0655 103 31.534 103.123 31.9127C103.256 32.2818 103.44 32.5753 103.677 32.793C103.914 33.0202 104.198 33.1811 104.529 33.2757C104.87 33.3704 105.248 33.4177 105.665 33.4177C105.968 33.4177 106.275 33.4035 106.588 33.3751C106.91 33.3467 107.217 33.3089 107.511 33.2615C107.795 33.2237 108.06 33.1811 108.306 33.1337C108.561 33.0864 108.779 33.0391 108.959 32.9918L109.342 35.7037C109.068 35.8646 108.746 36.0066 108.377 36.1297C108.008 36.2433 107.615 36.3379 107.198 36.4136C106.782 36.4894 106.346 36.5462 105.892 36.584C105.447 36.6313 105.007 36.655 104.571 36.655C103.729 36.655 102.962 36.5462 102.271 36.3284C101.59 36.1013 101.008 35.751 100.525 35.2777C100.033 34.8139 99.654 34.2223 99.389 33.5029C99.1239 32.774 98.9914 31.9032 98.9914 30.8904V23.9046H95.4843V20.9939H98.9914V17.2313H102.939ZM122.76 36.3568C122.665 36.1675 122.585 35.9498 122.519 35.7037C122.452 35.4576 122.396 35.1973 122.348 34.9228C122.13 35.1594 121.88 35.3819 121.596 35.5901C121.312 35.7984 120.999 35.9782 120.659 36.1297C120.308 36.2906 119.925 36.4136 119.508 36.4988C119.092 36.5935 118.642 36.6408 118.16 36.6408C117.374 36.6408 116.65 36.5272 115.987 36.3C115.334 36.0729 114.771 35.7558 114.298 35.3487C113.824 34.9417 113.455 34.459 113.19 33.9005C112.925 33.3325 112.792 32.7173 112.792 32.0547C112.792 31.2027 112.958 30.4502 113.289 29.7971C113.621 29.1345 114.118 28.5902 114.78 28.1642C115.377 27.7761 116.11 27.4827 116.981 27.2839C117.861 27.0757 118.87 26.9715 120.005 26.9715H122.206V26.0628C122.206 25.7031 122.149 25.3813 122.036 25.0973C121.922 24.8039 121.752 24.553 121.525 24.3448C121.288 24.1271 120.99 23.9614 120.63 23.8478C120.28 23.7248 119.868 23.6632 119.395 23.6632C118.978 23.6632 118.619 23.7153 118.316 23.8194C118.013 23.9141 117.767 24.0513 117.577 24.2312C117.407 24.3921 117.279 24.5862 117.194 24.8133C117.118 25.0405 117.08 25.2914 117.08 25.5659H113.133C113.133 24.9127 113.275 24.2927 113.559 23.7058C113.853 23.119 114.279 22.6031 114.837 22.1582C115.386 21.7133 116.058 21.3631 116.853 21.1075C117.658 20.8424 118.576 20.7099 119.608 20.7099C120.535 20.7099 121.397 20.8235 122.192 21.0507C122.997 21.2779 123.692 21.6139 124.279 22.0588C124.866 22.5037 125.325 23.0669 125.656 23.7484C125.988 24.4205 126.153 25.2014 126.153 26.0912V32.6794C126.153 33.5029 126.205 34.1844 126.31 34.724C126.414 35.2635 126.565 35.7274 126.764 36.1155V36.3568H122.76ZM118.997 33.5881C119.395 33.5881 119.764 33.5408 120.105 33.4461C120.446 33.3515 120.753 33.2284 121.028 33.077C121.302 32.9255 121.539 32.7551 121.738 32.5658C121.936 32.367 122.093 32.1682 122.206 31.9695V29.3285H120.19C119.575 29.3285 119.049 29.39 118.614 29.5131C118.179 29.6267 117.824 29.7876 117.549 29.9958C117.275 30.2136 117.071 30.4739 116.939 30.7768C116.806 31.0702 116.74 31.392 116.74 31.7423C116.74 32.0168 116.787 32.2724 116.882 32.509C116.986 32.7362 117.133 32.9302 117.322 33.0912C117.511 33.2426 117.743 33.3657 118.018 33.4603C118.302 33.5455 118.628 33.5881 118.997 33.5881ZM131.45 14.5477H140.04V33.1479H144.441V36.3568H131.45V33.1479H136.05V17.7708H131.45V14.5477Z" fill="#7220FF"/>
<g clip-path="url(#clip0_197_15943)">
<path d="M19.6884 38.59C30.1272 38.59 38.5896 30.1277 38.5896 19.6888C38.5896 9.24991 30.1272 0.787537 19.6884 0.787537C9.24949 0.787537 0.787109 9.24991 0.787109 19.6888C0.787109 30.1277 9.24949 38.59 19.6884 38.59Z" stroke="#7220FF" stroke-width="1.5751"/>
<path d="M19.6888 30.7145C25.7782 30.7145 30.7145 25.7781 30.7145 19.6888C30.7145 13.5994 25.7782 8.66306 19.6888 8.66306C13.5995 8.66306 8.66309 13.5994 8.66309 19.6888C8.66309 25.7781 13.5995 30.7145 19.6888 30.7145Z" stroke="#7220FF" stroke-width="1.5751"/>
<path d="M19.6885 23.2328C21.6458 23.2328 23.2325 21.6461 23.2325 19.6888C23.2325 17.7315 21.6458 16.1448 19.6885 16.1448C17.7312 16.1448 16.1445 17.7315 16.1445 19.6888C16.1445 21.6461 17.7312 23.2328 19.6885 23.2328Z" fill="#7220FF" stroke="#7220FF" stroke-width="0.787552"/>
<path d="M12.2069 12.9946C13.0768 12.9946 13.782 12.2894 13.782 11.4195C13.782 10.5496 13.0768 9.84439 12.2069 9.84439C11.337 9.84439 10.6318 10.5496 10.6318 11.4195C10.6318 12.2894 11.337 12.9946 12.2069 12.9946Z" fill="#7220FF" stroke="#7220FF" stroke-width="0.787552"/>
<path d="M4.33194 32.6834C5.20185 32.6834 5.90704 31.9782 5.90704 31.1083C5.90704 30.2384 5.20185 29.5332 4.33194 29.5332C3.46203 29.5332 2.75684 30.2384 2.75684 31.1083C2.75684 31.9782 3.46203 32.6834 4.33194 32.6834Z" fill="#7220FF" stroke="#7220FF" stroke-width="0.787552"/>
<path d="M30.3212 23.2328C31.1911 23.2328 31.8963 22.5276 31.8963 21.6577C31.8963 20.7878 31.1911 20.0826 30.3212 20.0826C29.4513 20.0826 28.7461 20.7878 28.7461 21.6577C28.7461 22.5276 29.4513 23.2328 30.3212 23.2328Z" fill="#7220FF" stroke="#7220FF" stroke-width="0.787552"/>
<path d="M31.1083 36.6212C31.9782 36.6212 32.6834 35.916 32.6834 35.0461C32.6834 34.1761 31.9782 33.4709 31.1083 33.4709C30.2384 33.4709 29.5332 34.1761 29.5332 35.0461C29.5332 35.916 30.2384 36.6212 31.1083 36.6212Z" fill="#7220FF" stroke="#7220FF" stroke-width="0.787552"/>
<path d="M27.9579 4.33154C28.8278 4.33154 29.533 3.62634 29.533 2.75644C29.533 1.88653 28.8278 1.18134 27.9579 1.18134C27.088 1.18134 26.3828 1.88653 26.3828 2.75644C26.3828 3.62634 27.088 4.33154 27.9579 4.33154Z" fill="#7220FF" stroke="#7220FF" stroke-width="0.787552"/>
</g>
<defs>
<clipPath id="clip0_197_15943">
<rect width="39.3776" height="39.3776" fill="white"/>
</clipPath>
</defs>
</svg>
